HIERARCHY
ROOT Hips
{
	OFFSET 0.000000 0.000000 0.000000
	CHANNELS 6 Xposition Yposition Zposition Zrotation Yrotation Xrotation 
	JOINT LHipJoint
	{
		OFFSET 0.000000 0.000000 0.000000
		CHANNELS 3 Zrotation Yrotation Xrotation
		JOINT LeftUpLeg
		{
			OFFSET 1.363060 -1.794630 0.839290
			CHANNELS 3 Zrotation Yrotation Xrotation
			JOINT LeftLeg
			{
				OFFSET 2.448110 -6.726130 0.000000
				CHANNELS 3 Zrotation Yrotation Xrotation
				JOINT LeftFoot
				{
					OFFSET 2.562200 -7.039590 0.000000
					CHANNELS 3 Zrotation Yrotation Xrotation
					JOINT LeftToeBase
					{
						OFFSET 0.157640 -0.433110 2.322550
						CHANNELS 3 Zrotation Yrotation Xrotation
						End Site
						{
							OFFSET 0.000000 0.000000 0.000000
						}
					}
				}
			}
		}
	}
	JOINT RHipJoint
	{
		OFFSET 0.000000 0.000000 0.000000
		CHANNELS 3 Zrotation Yrotation Xrotation
		JOINT RightUpLeg
		{
			OFFSET -1.305520 -1.794630 0.839290
			CHANNELS 3 Zrotation Yrotation Xrotation
			JOINT RightLeg
			{
				OFFSET -2.542530 -6.985550 0.000000
				CHANNELS 3 Zrotation Yrotation Xrotation
				JOINT RightFoot
				{
					OFFSET -2.568260 -7.056230 0.000000
					CHANNELS 3 Zrotation Yrotation Xrotation
					JOINT RightToeBase
					{
						OFFSET -0.164730 -0.452590 2.363150
						CHANNELS 3 Zrotation Yrotation Xrotation
						End Site
						{
							OFFSET 0.000000 0.000000 0.000000
						}
					}
				}
			}
		}
	}
	JOINT LowerBack
	{
		OFFSET 0.000000 0.000000 0.000000
		CHANNELS 3 Zrotation Yrotation Xrotation
		JOINT Spine
		{
			OFFSET 0.028270 2.035590 -0.193380
			CHANNELS 3 Zrotation Yrotation Xrotation
			JOINT Spine1
			{
				OFFSET 0.056720 2.048850 -0.042750
				CHANNELS 3 Zrotation Yrotation Xrotation
				JOINT Neck
				{
					OFFSET 0.000000 0.000000 0.000000
					CHANNELS 3 Zrotation Yrotation Xrotation
					JOINT Neck1
					{
						OFFSET -0.054170 1.746240 0.172020
						CHANNELS 3 Zrotation Yrotation Xrotation
						JOINT Head
						{
							OFFSET 0.104070 1.761360 -0.123970
							CHANNELS 3 Zrotation Yrotation Xrotation
							End Site
							{
								OFFSET 0.000000 0.000000 0.000000
							}
						}
					}
				}
				JOINT LeftShoulder
				{
					OFFSET 0.000000 0.000000 0.000000
					CHANNELS 3 Zrotation Yrotation Xrotation
					JOINT LeftArm
					{
						OFFSET 3.362410 1.200890 -0.311210
						CHANNELS 3 Zrotation Yrotation Xrotation
						JOINT LeftForeArm
						{
							OFFSET 4.983000 -0.000000 -0.000000
							CHANNELS 3 Zrotation Yrotation Xrotation
							JOINT LeftHand
							{
								OFFSET 3.483560 -0.000000 -0.000000
								CHANNELS 3 Zrotation Yrotation Xrotation
								JOINT LeftFingerBase
								{
									OFFSET 0.000000 0.000000 0.000000
									CHANNELS 3 Zrotation Yrotation Xrotation
									JOINT LeftHandIndex1
									{
										OFFSET 0.715260 -0.000000 -0.000000
										CHANNELS 3 Zrotation Yrotation Xrotation
										End Site
										{
											OFFSET 0.000000 0.000000 0.000000
										}
									}
								}
								JOINT LThumb
								{
									OFFSET 0.000000 0.000000 0.000000
									CHANNELS 3 Zrotation Yrotation Xrotation
									End Site
									{
										OFFSET 0.000000 0.000000 0.000000
									}
								}
							}
						}
					}
				}
				JOINT RightShoulder
				{
					OFFSET 0.000000 0.000000 0.000000
					CHANNELS 3 Zrotation Yrotation Xrotation
					JOINT RightArm
					{
						OFFSET -3.136600 1.374050 -0.404650
						CHANNELS 3 Zrotation Yrotation Xrotation
						JOINT RightForeArm
						{
							OFFSET -5.241900 -0.000000 -0.000000
							CHANNELS 3 Zrotation Yrotation Xrotation
							JOINT RightHand
							{
								OFFSET -3.444170 -0.000000 -0.000000
								CHANNELS 3 Zrotation Yrotation Xrotation
								JOINT RightFingerBase
								{
									OFFSET 0.000000 0.000000 0.000000
									CHANNELS 3 Zrotation Yrotation Xrotation
									JOINT RightHandIndex1
									{
										OFFSET -0.622530 -0.000000 -0.000000
										CHANNELS 3 Zrotation Yrotation Xrotation
										End Site
										{
											OFFSET 0.000000 0.000000 0.000000
										}
									}
								}
								JOINT RThumb
								{
									OFFSET 0.000000 0.000000 0.000000
									CHANNELS 3 Zrotation Yrotation Xrotation
									End Site
									{
										OFFSET 0.000000 0.000000 0.000000
									}
								}
							}
						}
					}
				}
			}
		}
	}
}
MOTION
Frames: 5
Frame Time: 0.008333
-1.825412 15.546685 0.785931 -124.251317 -85.850718 177.232169 -8.270490 -0.921232 3.440467 -6.637489 -11.525047 -85.642493 -1.634074 3.029302 51.123381 2.855737 5.465604 -23.496675 -1.688900 -0.000000 -22.217200 8.208324 0.680154 2.650006 12.321768 10.654303 -87.927766 1.884440 -5.959203 60.032325 0.075907 5.063075 -15.385876 -0.063700 -0.000001 -75.216200 3.498090 -1.091881 -2.080625 -0.397993 -1.481528 -3.741634 -7.357176 -1.770210 -0.579675 10.618952 2.242052 -7.002461 -4.341317 -0.299966 -0.465648 0.000000 0.000000 0.000000 -7.159161 -0.974458 5.077964 -53.223231 -25.536766 15.511652 -2.880299 -45.757329 -0.000064 -2.659891 6.595703 -0.142207 -0.098173 0.208951 0.000000 0.000000 0.000000 0.000000 0.000000 0.000000 0.000000 21.978494 4.827872 4.780354 63.906219 6.352296 2.784979 2.800636 17.408679 0.016039 5.618324 1.890698 0.100599 0.007217 -0.153390 0.000000 0.000000 0.000000 0.000000 0.000000 0.000000 0.000000 
-1.921648 15.416147 0.796307 -119.894424 -86.262968 173.495080 -8.240635 -1.030830 3.523355 -6.428568 -12.128713 -87.282316 -1.453988 3.247336 53.699730 2.943791 5.505656 -24.661327 -1.876700 -0.000001 -22.428700 8.227533 0.668430 2.879295 11.871875 11.045108 -89.572344 1.758356 -6.107363 61.287947 0.137205 5.459703 -15.804256 -0.094800 -0.000000 -74.793900 3.729756 -1.149829 -2.398989 -0.353643 -1.571613 -3.825192 -7.390126 -1.868185 -0.630318 10.832293 2.309514 -7.074167 -4.372291 -0.301815 -0.494563 0.000000 0.000000 0.000000 -7.091762 -1.566346 5.173201 -52.698340 -26.038716 15.697846 -2.861294 -45.937745 -0.000172 -2.647270 6.708225 -0.143908 -0.098358 0.212376 0.000000 0.000000 0.000000 0.000000 0.000000 0.000000 0.000000 22.375706 4.894107 4.916405 63.427311 6.299889 3.275724 2.853383 17.049779 0.016746 5.956504 1.667559 0.095002 0.005376 -0.152233 0.000000 0.000000 0.000000 0.000000 0.000000 0.000000 0.000000 
-2.018272 15.281274 0.804024 -114.937618 -86.734053 169.042186 -8.220250 -1.168311 3.591272 -6.296247 -12.735268 -88.777568 -1.269386 3.462358 56.302734 3.028358 5.562678 -25.807520 -2.068200 -0.000000 -22.676999 8.244079 0.662211 3.078219 11.344748 11.330581 -91.028004 1.590389 -6.247048 62.782093 0.137454 5.663553 -16.518920 -0.128000 0.000000 -73.819500 3.904747 -1.225168 -2.690944 -0.325041 -1.675957 -3.901249 -7.431878 -1.980274 -0.676528 11.057550 2.382388 -7.142393 -4.410867 -0.304261 -0.522388 0.000000 0.000000 0.000000 -7.057500 -2.193977 5.278013 -52.080655 -26.576030 15.962060 -2.854658 -45.960899 -0.000446 -2.586845 6.745350 -0.141108 -0.099649 0.215999 0.000000 0.000000 0.000000 0.000000 0.000000 0.000000 0.000000 22.819055 4.945604 5.049993 62.940822 6.354518 3.781521 2.912730 16.480456 0.017517 6.274404 1.604673 0.096608 0.003879 -0.151921 0.000000 0.000000 0.000000 0.000000 0.000000 0.000000 0.000000 
-2.115135 15.143927 0.808588 -109.273788 -87.266475 163.753845 -8.214042 -1.330689 3.639342 -6.264743 -13.346609 -90.084210 -1.085621 3.672775 58.894316 3.109278 5.636238 -26.938890 -2.264600 0.000000 -22.964900 8.250829 0.663472 3.240482 10.750777 11.495755 -92.265280 1.390724 -6.372733 64.475311 0.072224 5.672762 -17.572736 -0.160099 -0.000000 -72.255400 3.995668 -1.320699 -2.943869 -0.318284 -1.794535 -3.970327 -7.475881 -2.106845 -0.731404 11.282579 2.537888 -7.192698 -4.456882 -0.307376 -0.545536 0.000000 0.000000 0.000000 -7.041204 -2.860814 5.400788 -51.394628 -27.149844 16.301932 -2.864528 -45.773613 -0.000804 -2.487626 6.683095 -0.133904 -0.102051 0.220137 0.000000 0.000000 0.000000 0.000000 0.000000 0.000000 0.000000 23.287511 5.069681 5.181775 62.495822 6.416576 4.037131 2.966153 15.753414 0.018324 6.594042 1.593110 0.100915 0.001928 -0.151988 0.000000 0.000000 0.000000 0.000000 0.000000 0.000000 0.000000 
-2.212802 15.005579 0.809974 -102.349132 -87.863904 157.083726 -8.231517 -1.518460 3.671203 -6.339100 -13.966486 -91.189357 -0.906776 3.878232 61.444153 3.186831 5.723029 -28.064147 -2.466900 -0.000000 -23.261499 8.238438 0.664966 3.367623 10.107730 11.541835 -93.280802 1.170493 -6.481165 66.319769 -0.059079 5.494127 -18.972150 -0.181100 0.000000 -70.127900 3.984159 -1.438249 -3.161959 -0.338035 -1.927681 -4.027860 -7.518435 -2.247180 -0.777283 11.501820 2.690984 -7.254421 -4.504578 -0.310494 -0.572310 0.000000 0.000000 0.000000 -7.036146 -3.524413 5.535747 -50.655799 -27.829028 16.773117 -2.894737 -45.309768 -0.001284 -2.342230 6.512535 -0.122099 -0.105782 0.224564 0.000000 0.000000 0.000000 0.000000 0.000000 0.000000 0.000000 23.763151 5.180882 5.310952 62.096133 6.619473 4.178784 3.016118 14.764722 0.019033 6.853957 1.665650 0.109322 0.000367 -0.152450 0.000000 0.000000 0.000000 0.000000 0.000000 0.000000 0.000000 
